# Blender v2.78 (sub 0) OBJ File: 'bidirectional_cornell_box_2.blend'
# www.blender.org
o box_white_Cube.001
v -3.130167 -3.130167 3.130167
v -3.130167 3.130167 3.130167
v -3.130167 -3.130167 -3.130167
v -3.130167 3.130167 -3.130167
v 3.130167 -3.130167 3.130167
v 3.130167 3.130167 3.130167
v 3.130167 -3.130167 -3.130167
v 3.130167 3.130167 -3.130167
v -0.870781 -3.130167 -3.130167
v -0.870781 3.130167 -3.130167
v -0.870781 -3.130167 3.130167
v -0.870781 3.130167 3.130167
v -3.130167 3.130167 -5.865355
v -3.130167 -3.130167 -5.865355
v -0.870781 -3.130167 -5.865355
v -0.870781 3.130167 -5.865355
v -0.870781 3.130167 -4.215730
v -3.130167 3.130167 -4.215730
v -3.130167 -3.130167 -4.215730
v -0.870781 -3.130167 -4.215730
v 1.459978 3.130167 -5.865355
v 1.459978 -3.130167 -5.865355
v 1.459978 3.130167 -4.215730
v 1.459978 -3.130167 -4.215730
vn 1.0000 0.0000 0.0000
vn 0.0000 1.0000 0.0000
vn 0.0000 -1.0000 0.0000
vn 0.0000 0.0000 1.0000
vn -1.0000 0.0000 0.0000
vn 0.0000 0.0000 -1.0000
s off
f 1//1 3//1 4//1 2//1
f 9//2 11//2 5//2 7//2
f 10//3 12//3 2//3 4//3
f 8//3 6//3 12//3 10//3
f 3//2 1//2 11//2 9//2
f 18//3 13//3 16//3 17//3
f 14//4 15//4 16//4 13//4
f 19//1 14//1 13//1 18//1
f 17//3 16//3 21//3 23//3
f 20//2 15//2 14//2 19//2
f 9//2 20//2 19//2 3//2
f 10//5 17//5 20//5 9//5
f 3//1 19//1 18//1 4//1
f 4//3 18//3 17//3 10//3
f 23//5 21//5 22//5 24//5
f 20//6 17//6 23//6 24//6
f 15//2 20//2 24//2 22//2
f 16//4 15//4 22//4 21//4
